PathFileType	4	(X/Y/Z)	21_coords_data.trc
DataRate	CameraRate	NumFrames	NumMarkers	Units	OrigDataRate	OrigDataStartFrame	OrigNumFrames
30.0	30.0	8	21	m	30.0	1	63
Frame#	Time	THUMB_TIP	THUMB_IP	THUMB_MCP	THUMB_CMC	INDEX_TIP	INDEX_DIP	INDEX_PIP	INDEX_MCP	MIDDLE_TIP	MIDDLE_DIP	MIDDLE_PIP	MIDDLE_MCP	RING_TIP	RING_DIP	RING_PIP	RING_MCP	PINKY_TIP	PINKY_DIP	PINKY_PIP	PINKY_MCP	WRIST
X1	Y1	Z1	X2	Y2	Z2	X3	Y3	Z3	X4	Y4	Z4	X5	Y5	Z5	X6	Y6	Z6	X7	Y7	Z7	X8	Y8	Z8	X9	Y9	Z9	X10	Y10	Z10	X11	Y11	Z11	X12	Y12	Z12	X13	Y13	Z13	X14	Y14	Z14	X15	Y15	Z15	X16	Y16	Z16	X17	Y17	Z17	X18	Y18	Z18	X19	Y19	Z19	X20	Y20	Z20	X21	Y21	Z21
0	0.0	-0.03129339981079102	0.02455419921875	0.8854639892578124	-0.01566219997406006	0.027472099304199218	0.908219970703125	-0.020211999893188476	0.037928001403808594	0.937072998046875	-0.04004249954223633	0.055747699737548825	0.9564340209960938	-0.000676158010959625	-0.08135590362548828	0.9053499755859375	-0.00808804988861084	-0.0601432991027832	0.9129929809570313	-0.01510219955444336	-0.04225139999389648	0.9214769897460937	-0.036359100341796874	-0.00921265983581543	0.9401010131835937	-0.026641700744628908	0.020619199752807616	0.9074710083007812	-0.02578879928588867	0.005065959930419922	0.8941740112304688	-0.038798900604248045	-0.01922540092468262	0.8981409912109375	-0.062018798828125	-0.007460989952087402	0.940791015625	-0.03424729919433594	0.02524769973754883	0.896489990234375	-0.03923780059814453	0.009917779922485352	0.8867100219726562	-0.058926601409912106	-0.009965410232543945	0.88927001953125	-0.07592980194091797	0.005019120216369629	0.9270609741210938	-0.08327050018310547	-0.03308750152587891	0.8692899780273438	-0.08013200378417969	-0.01639520072937012	0.8815809936523438	-0.0786895980834961	-0.002247390031814575	0.8928209838867187	-0.07609999847412109	0.019265800476074218	0.9128159790039062	-0.07158270263671875	0.059030601501464844	0.980760009765625
1	0.03333333333333333	-0.02953310012817383	0.0241387996673584	0.8864359741210938	-0.01511579990386963	0.02751700019836426	0.9066420288085938	-0.020134700775146484	0.03634600067138672	0.9355020141601562	-0.03997620010375977	0.05528070068359375	0.9524920043945313	-0.0023583600521087642	-0.08220680236816406	0.90472998046875	-0.008293869972229004	-0.06019200134277344	0.912375	-0.017122600555419924	-0.04212979888916016	0.9218489990234375	-0.03582649993896484	-0.008570770263671874	0.9394110107421875	-0.026365900039672853	0.020352899551391603	0.9058800048828125	-0.026280799865722657	0.004993639945983887	0.8943790283203125	-0.03955759811401367	-0.01850160026550293	0.89760302734375	-0.06110129928588867	-0.00835297966003418	0.9372269897460938	-0.03376210021972656	0.02464739990234375	0.89585400390625	-0.04002159881591797	0.010119799613952637	0.8861950073242187	-0.0588661003112793	-0.010077500343322754	0.8894639892578124	-0.07366850280761719	0.003821789979934692	0.9253460083007813	-0.08410320281982422	-0.03350419998168945	0.868197998046875	-0.08023490142822266	-0.01588770008087158	0.8805079956054688	-0.07811750030517578	-0.002806910037994384	0.8921959838867187	-0.07650920104980469	0.019305500030517578	0.9131199951171876	-0.07116020202636719	0.05787960052490235	0.9789719848632813
2	0.06666666666666667	-0.029501600265502928	0.023989599227905275	0.88631298828125	-0.01519909954071045	0.027450199127197265	0.9064840087890625	-0.020269399642944337	0.03621860122680664	0.9353759765625	-0.04009460067749023	0.05504629898071289	0.9524290161132812	-0.002825560092926025	-0.08241230010986328	0.9044920043945313	-0.008703590393066406	-0.06037950134277344	0.9121790161132812	-0.01743510055541992	-0.0422952995300293	0.9216389770507812	-0.03598659896850586	-0.008851460456848145	0.9391510009765625	-0.026268699645996093	0.020367300033569336	0.9056840209960938	-0.026435400009155275	0.004916289806365967	0.8942620239257812	-0.03974720001220703	-0.018498899459838868	0.8973779907226562	-0.0614994010925293	-0.008440549850463868	0.9372470092773437	-0.0338489990234375	0.02453019905090332	0.895677001953125	-0.040130901336669925	0.010043000221252442	0.886083984375	-0.058974498748779296	-0.010127300262451172	0.8893319702148438	-0.07388890075683593	0.0038045699596405027	0.92531201171875	-0.08419110107421875	-0.03335110092163086	0.8679920043945313	-0.0803291015625	-0.015751500129699707	0.880281982421875	-0.07830149841308594	-0.002736589908599853	0.8918820190429687	-0.0766760025024414	0.019279899597167968	0.9128380126953125	-0.07079100036621094	0.0574921989440918	0.978218994140625
3	0.1	-0.029865800857543947	0.02407320022583008	0.88622900390625	-0.015383399963378907	0.027307600021362306	0.9062730102539063	-0.02041379928588867	0.03600749969482422	0.93518701171875	-0.040239799499511716	0.055024299621582035	0.9522449951171875	-0.003601449966430664	-0.08262329864501954	0.9037979736328124	-0.009378290176391602	-0.06062080001831055	0.9116530151367187	-0.018032699584960937	-0.042517601013183595	0.9212260131835938	-0.03631460189819336	-0.009079950332641602	0.9389390258789062	-0.026578100204467773	0.020181699752807616	0.9055800170898437	-0.026731700897216798	0.0050075998306274416	0.894083984375	-0.04022549819946289	-0.018509300231933593	0.8971519775390625	-0.061900798797607424	-0.008632019996643066	0.9370460205078125	-0.03394860076904297	0.02457859992980957	0.8955780029296875	-0.040255901336669925	0.010167699813842773	0.8860089721679687	-0.05918410110473633	-0.01022949981689453	0.8891619873046875	-0.07407830047607422	0.003683419942855835	0.92489599609375	-0.0845779037475586	-0.03326490020751953	0.8678060302734375	-0.0806010971069336	-0.015719799995422362	0.880051025390625	-0.07853990173339843	-0.002733000040054321	0.8916900024414063	-0.0769447021484375	0.0192539005279541	0.9128400268554687	-0.07120359802246094	0.057566600799560545	0.9785659790039063
4	0.13333333333333333	-0.029995800018310547	0.024093999862670898	0.8859619750976563	-0.015628399848937987	0.027282800674438477	0.906114013671875	-0.02064649963378906	0.035936798095703125	0.93502197265625	-0.04044649887084961	0.05497900009155274	0.9521900024414063	-0.003995199918746948	-0.08269760131835938	0.9035180053710937	-0.00975135040283203	-0.060674800872802734	0.9113510131835938	-0.018349899291992187	-0.04257419967651367	0.9210020141601563	-0.036599899291992186	-0.009021900177001952	0.9387589721679688	-0.026766000747680666	0.020093000411987305	0.90531201171875	-0.026974599838256837	0.004923490047454834	0.8937420043945312	-0.04052669906616211	-0.018481000900268555	0.8969869995117188	-0.06207400131225586	-0.008695500373840332	0.9368829956054687	-0.034304000854492187	0.024607200622558594	0.8953930053710938	-0.04058990097045898	0.009967889785766602	0.8857470092773437	-0.059517101287841795	-0.01023740005493164	0.8890170288085938	-0.07442880249023437	0.0036715700626373292	0.9248880004882812	-0.0850000991821289	-0.03306650161743164	0.8669749755859375	-0.08103659820556641	-0.015538399696350097	0.8797860107421875	-0.0788772964477539	-0.002738490104675293	0.8913709716796875	-0.07714739990234375	0.019183500289916992	0.9124169921875	-0.07165920257568359	0.05749919891357422	0.9786820068359375
5	0.16666666666666666	-0.030197099685668947	0.024168800354003907	0.8859329833984375	-0.01594849967956543	0.027357099533081054	0.9060869750976562	-0.020833999633789062	0.03591630172729492	0.934968994140625	-0.040633800506591794	0.05483599853515625	0.9521220092773437	-0.004170919895172119	-0.08254840087890625	0.9031690063476563	-0.009912289619445801	-0.060559898376464846	0.911093994140625	-0.01853350067138672	-0.042474300384521484	0.9207630004882813	-0.036848400115966795	-0.009092220306396484	0.9386539916992187	-0.027020999908447266	0.02017770004272461	0.9052739868164063	-0.02726409912109375	0.005062300205230713	0.8937020263671875	-0.04067610168457031	-0.01837649917602539	0.8968380126953125	-0.06233819961547851	-0.008675439834594727	0.9366740112304688	-0.03452019882202149	0.024604900360107422	0.895093017578125	-0.040735500335693356	0.010138699531555176	0.8855770263671875	-0.05975600051879883	-0.010101900100708008	0.8888989868164062	-0.07470330047607422	0.003784980058670044	0.9247030029296875	-0.08517469787597656	-0.03268790054321289	0.86668701171875	-0.08119609832763672	-0.015268500328063966	0.8794929809570312	-0.079027099609375	-0.002393749952316284	0.891218017578125	-0.07733999633789063	0.01941110038757324	0.9125789794921875	-0.07132579803466797	0.057247100830078126	0.9780499877929687
6	0.2	-0.030440099716186525	0.024355100631713866	0.885625	-0.016017900466918946	0.027450199127197265	0.9059509887695313	-0.02099880027770996	0.03591109848022461	0.9348309936523438	-0.040811100006103516	0.05487519836425781	0.95206298828125	-0.004333260059356689	-0.08239019775390626	0.9029310302734375	-0.010106200218200684	-0.06043600082397461	0.9108679809570313	-0.01872559928894043	-0.042402198791503906	0.9205579833984375	-0.037052398681640626	-0.009124059677124024	0.9384910278320312	-0.027059499740600585	0.02034900093078613	0.905291015625	-0.02737969970703125	0.005207699775695801	0.8935850219726562	-0.040869701385498045	-0.018262800216674806	0.8967420043945312	-0.062497100830078124	-0.008560500144958495	0.936708984375	-0.03468239974975586	0.02480690002441406	0.8950850219726563	-0.040886001586914064	0.010374699592590332	0.885677978515625	-0.05995560073852539	-0.010028400421142579	0.888906005859375	-0.0749136962890625	0.003837440013885498	0.9247570190429687	-0.08505950164794922	-0.032402198791503904	0.8664509887695313	-0.08118879699707031	-0.015025400161743164	0.879239013671875	-0.0791175994873047	-0.0023105599880218503	0.8909609985351562	-0.07755740356445312	0.019575599670410157	0.9126079711914062	-0.07145459747314453	0.05736349868774414	0.97827001953125
7	0.23333333333333334	-0.03089620018005371	0.02442690086364746	0.885655029296875	-0.01618429946899414	0.027468799591064453	0.905989990234375	-0.02113159942626953	0.035934898376464845	0.935072998046875	-0.04098989868164062	0.054802600860595706	0.9518519897460938	-0.0047763800621032715	-0.08242680358886718	0.9028809814453125	-0.01048270034790039	-0.06046239852905273	0.910885986328125	-0.01903219985961914	-0.0424098014831543	0.9205910034179687	-0.03720090103149414	-0.009084369659423828	0.9384829711914062	-0.02724370002746582	0.020361400604248046	0.9052269897460937	-0.02765719985961914	0.005259260177612305	0.893698974609375	-0.04117409896850586	-0.01832550048828125	0.8967789916992187	-0.0625728988647461	-0.008521550178527832	0.9365189819335937	-0.0348828010559082	0.024696800231933595	0.8948619995117187	-0.04117890167236328	0.010167200088500977	0.885552978515625	-0.0602588005065918	-0.010028800010681153	0.8889660034179687	-0.07502020263671876	0.003970540046691894	0.9246790161132813	-0.0851250991821289	-0.0322130012512207	0.8664600219726563	-0.08128199768066406	-0.014866299629211426	0.8792949829101563	-0.07925250244140625	-0.002036940097808838	0.8911630249023438	-0.07765730285644531	0.019694599151611328	0.9125960083007812	-0.07179850006103515	0.057723899841308594	0.9785989990234375
